<svg width="40" height="45" viewBox="0 0 40 45" fill="none" xmlns="http://www.w3.org/2000/svg">
<path d="M13.2632 3.54262L13.4872 3.63907L13.7081 3.53597L20.0019 0.598864L26.4037 3.53741L26.6286 3.64064L26.8541 3.53879L33.3677 0.597158L39.4565 3.39201V40.7408L33.4677 43.5356L26.5166 40.5866L26.2899 40.4905L26.0681 40.5975L19.9923 43.5306L13.4846 40.5916L13.2609 40.4906L13.0372 40.5916L6.52546 43.5324L0.543478 40.7408V3.38713L6.42389 0.596429L13.2632 3.54262Z" fill="#F6F6F6" stroke="black" stroke-width="1.08696"/>
<rect x="4.23913" y="6.41305" width="31.3043" height="31.5217" fill="#EB8B8B" stroke="black" stroke-width="1.08696"/>
<path d="M27.3194 14.5621C27.3194 15.5243 26.6381 16.3043 25.7976 16.3043C24.9572 16.3043 24.2759 15.5243 24.2759 14.5621C24.2759 14.2912 25.1089 14.3571 25.8006 14.1522C26.5455 13.9314 27.3194 13.5999 27.3194 14.5621Z" fill="black"/>
<path d="M14.4933 14.5621C14.4933 15.5243 15.1746 16.3043 16.015 16.3043C16.8554 16.3043 17.5368 15.5243 17.5368 14.5621C17.5368 14.2912 16.7037 14.3571 16.012 14.1522C15.2672 13.9314 14.4933 13.5999 14.4933 14.5621Z" fill="black"/>
<circle cx="20.4715" cy="20.5435" r="2.82609" stroke="black" stroke-width="1.08696"/>
<path d="M28.8291 30.4306C28.8291 30.4306 23.9234 26.0374 20.1468 25.6642C16.3473 25.2886 10.6522 28.6818 10.6522 28.6818" stroke="black" stroke-width="1.08696"/>
</svg>
