<svg width="40" height="45" viewBox="0 0 40 45" fill="none" xmlns="http://www.w3.org/2000/svg">
<path d="M13.2632 3.54262L13.4872 3.63907L13.7081 3.53597L20.0019 0.598864L26.4037 3.53741L26.6286 3.64064L26.8541 3.53879L33.3677 0.597158L39.4565 3.39201V40.7408L33.4677 43.5356L26.5166 40.5866L26.2899 40.4905L26.0681 40.5975L19.9923 43.5306L13.4846 40.5916L13.2609 40.4906L13.0372 40.5916L6.52546 43.5324L0.543478 40.7408V3.38713L6.42389 0.596429L13.2632 3.54262Z" fill="#F6F6F6" stroke="black" stroke-width="1.08696"/>
<rect x="4.23913" y="6.41304" width="31.3043" height="31.5217" fill="#B1D3B9" stroke="black" stroke-width="1.08696"/>
<ellipse cx="15.6889" cy="14.8913" rx="1.19565" ry="1.84783" fill="black"/>
<ellipse cx="26.1237" cy="14.8913" rx="1.19565" ry="1.84783" fill="black"/>
<circle cx="20.4715" cy="20.9783" r="2.82609" stroke="black" stroke-width="1.08696"/>
<path d="M28.8291 30.8654C28.8291 30.8654 23.9233 26.4722 20.1468 26.099C16.3472 25.7234 10.6521 29.1166 10.6521 29.1166" stroke="black" stroke-width="1.08696"/>
</svg>
