<svg width="9" height="15" viewBox="0 0 9 15" fill="none" xmlns="http://www.w3.org/2000/svg">
<path d="M7.77933 0.275426C7.69225 0.18812 7.58879 0.118852 7.4749 0.0715898C7.361 0.0243277 7.2389 0 7.11558 0C6.99227 0 6.87017 0.0243277 6.75627 0.0715898C6.64237 0.118852 6.53892 0.18812 6.45183 0.275426L0.219333 6.50793C0.149806 6.57731 0.0946448 6.65973 0.0570087 6.75046C0.0193726 6.84119 0 6.93845 0 7.03668C0 7.1349 0.0193726 7.23216 0.0570087 7.32289C0.0946448 7.41362 0.149806 7.49604 0.219333 7.56543L6.45183 13.7979C6.81933 14.1654 7.41183 14.1654 7.77933 13.7979C8.14683 13.4304 8.14683 12.8379 7.77933 12.4704L2.34933 7.03293L7.78683 1.59543C8.14683 1.23543 8.14683 0.635426 7.77933 0.275426Z" fill="black"/>
</svg>
