<svg width="40" height="45" viewBox="0 0 40 45" fill="none" xmlns="http://www.w3.org/2000/svg">
<path d="M13.2632 3.54262L13.4872 3.63907L13.7081 3.53597L20.0019 0.598864L26.4037 3.53741L26.6286 3.64064L26.8541 3.53879L33.3677 0.597158L39.4565 3.39201V40.7408L33.4677 43.5356L26.5166 40.5866L26.2899 40.4905L26.0681 40.5975L19.9923 43.5306L13.4846 40.5916L13.2609 40.4906L13.0372 40.5916L6.52546 43.5324L0.543478 40.7408V3.38713L6.42389 0.596429L13.2632 3.54262Z" fill="#F6F6F6" stroke="black" stroke-width="1.08696"/>
<rect x="4.23913" y="6.41305" width="31.3043" height="31.5217" fill="#CEE7F5" stroke="black" stroke-width="1.08696"/>
<ellipse cx="15.3261" cy="14.8913" rx="1.19565" ry="1.84783" fill="black"/>
<ellipse cx="25.7609" cy="14.8913" rx="1.19565" ry="1.84783" fill="black"/>
<circle cx="20.1087" cy="20.9783" r="2.82609" stroke="black" stroke-width="1.08696"/>
<path d="M29.0598 27.0652C29.0598 27.3393 28.8899 27.7676 28.4399 28.2962C28.0032 28.8091 27.3546 29.3539 26.5346 29.8532C24.8946 30.8516 22.6303 31.6304 20.1591 31.6304C17.6957 31.6304 15.3997 30.7987 13.7086 29.7428C12.8636 29.2152 12.1841 28.6406 11.7162 28.1028C11.2457 27.5621 11.0427 27.1209 11.0171 26.8382C11.0314 26.5033 11.1068 26.29 11.1985 26.1504C11.2895 26.012 11.4228 25.9057 11.6242 25.8282C12.0638 25.659 12.7466 25.655 13.6817 25.7703C14.244 25.8397 14.8384 25.9427 15.4725 26.0525C15.8866 26.1242 16.3176 26.1988 16.7676 26.269C17.8781 26.442 19.0572 26.5782 20.1866 26.521C21.5083 26.454 22.7679 26.2726 23.8985 26.0959C24.0731 26.0686 24.244 26.0416 24.4112 26.0151C25.34 25.868 26.1555 25.7388 26.8571 25.6894C27.7028 25.6297 28.2514 25.6996 28.5798 25.8918C28.8416 26.0451 29.0598 26.3365 29.0598 27.0652Z" stroke="black" stroke-width="1.08696"/>
</svg>
