<svg width="29" height="28" viewBox="0 0 29 28" fill="none" xmlns="http://www.w3.org/2000/svg">
<path d="M13.1875 14.4375H14.9375V20.125M4.875 10.5H24.125M18.875 7V3.5M10.125 7V3.5M6.625 24.5H22.375C22.8391 24.5 23.2842 24.3156 23.6124 23.9874C23.9406 23.6592 24.125 23.2141 24.125 22.75V7C24.125 6.53587 23.9406 6.09075 23.6124 5.76256C23.2842 5.43437 22.8391 5.25 22.375 5.25H6.625C6.16087 5.25 5.71575 5.43437 5.38756 5.76256C5.05937 6.09075 4.875 6.53587 4.875 7V22.75C4.875 23.2141 5.05937 23.6592 5.38756 23.9874C5.71575 24.3156 6.16087 24.5 6.625 24.5Z" stroke="#D9D9D9" stroke-width="2" stroke-linecap="round" stroke-linejoin="round"/>
</svg>
