<svg width="29" height="28" viewBox="0 0 29 28" fill="none" xmlns="http://www.w3.org/2000/svg">
<path d="M6.33333 14.8867C6.33333 13.3023 6.33333 12.5102 6.653 11.8137C6.97383 11.1172 7.57466 10.6027 8.77749 9.57133L9.94416 8.57149C12.12 6.70833 13.205 5.77499 14.5 5.77499C15.795 5.77499 16.8812 6.70716 19.0558 8.57033L20.2225 9.57016C21.4242 10.6015 22.0262 11.116 22.3458 11.8125C22.6667 12.509 22.6667 13.3012 22.6667 14.8855V19.8333C22.6667 22.0337 22.6667 23.1327 21.983 23.8163C21.2993 24.5 20.2003 24.5 18 24.5H11C8.79966 24.5 7.70066 24.5 7.01699 23.8163C6.33333 23.1327 6.33333 22.0337 6.33333 19.8333V14.8867Z" stroke="black" stroke-width="2"/>
<path d="M17.4167 24.5V18.6667C17.4167 18.3572 17.2937 18.0605 17.075 17.8417C16.8562 17.6229 16.5594 17.5 16.25 17.5H12.75C12.4406 17.5 12.1438 17.6229 11.925 17.8417C11.7062 18.0605 11.5833 18.3572 11.5833 18.6667V24.5" stroke="black" stroke-width="2" stroke-linecap="round" stroke-linejoin="round"/>
</svg>
