<svg width="16" height="22" viewBox="0 0 16 22" fill="none" xmlns="http://www.w3.org/2000/svg">
<path d="M1.66675 17.432V18.732C1.66675 19.0768 1.80371 19.4075 2.04751 19.6513C2.29131 19.8951 2.62197 20.032 2.96675 20.032H13.3667C13.7115 20.032 14.0422 19.8951 14.286 19.6513C14.5298 19.4075 14.6667 19.0768 14.6667 18.732V17.432C14.6667 16.3977 14.2559 15.4057 13.5245 14.6743C12.7931 13.9429 11.8011 13.532 10.7667 13.532H5.56675C4.5324 13.532 3.54042 13.9429 2.80903 14.6743C2.07764 15.4057 1.66675 16.3977 1.66675 17.432ZM12.0667 5.73203C12.0667 6.76638 11.6559 7.75836 10.9245 8.48975C10.1931 9.22114 9.20109 9.63203 8.16675 9.63203C7.1324 9.63203 6.14042 9.22114 5.40903 8.48975C4.67764 7.75836 4.26675 6.76638 4.26675 5.73203C4.26675 4.69769 4.67764 3.70571 5.40903 2.97431C6.14042 2.24292 7.1324 1.83203 8.16675 1.83203C9.20109 1.83203 10.1931 2.24292 10.9245 2.97431C11.6559 3.70571 12.0667 4.69769 12.0667 5.73203Z" stroke="#D9D9D9" stroke-width="2"/>
</svg>
