<svg width="360" height="46" viewBox="0 0 360 46" fill="none" xmlns="http://www.w3.org/2000/svg">
<mask id="path-1-inside-1_0_219" fill="white">
<path d="M0 0H360V46H0V0Z"/>
</mask>
<path d="M0 0H360V46H0V0Z" fill="white"/>
<path d="M0 1H360V-1H0V1Z" fill="#F6F6F6" mask="url(#path-1-inside-1_0_219)"/>
<path d="M47.3333 23.8867C47.3333 22.3023 47.3333 21.5102 47.653 20.8137C47.9738 20.1172 48.5747 19.6027 49.7775 18.5713L50.9442 17.5715C53.12 15.7083 54.205 14.775 55.5 14.775C56.795 14.775 57.8812 15.7072 60.0558 17.5703L61.2225 18.5702C62.4242 19.6015 63.0262 20.116 63.3458 20.8125C63.6667 21.509 63.6667 22.3012 63.6667 23.8855V28.8333C63.6667 31.0337 63.6667 32.1327 62.983 32.8163C62.2993 33.5 61.2003 33.5 59 33.5H52C49.7997 33.5 48.7007 33.5 48.017 32.8163C47.3333 32.1327 47.3333 31.0337 47.3333 28.8333V23.8867Z" stroke="black" stroke-width="2"/>
<path d="M58.4167 33.5V27.6667C58.4167 27.3572 58.2937 27.0605 58.075 26.8417C57.8562 26.6229 57.5594 26.5 57.25 26.5H53.75C53.4406 26.5 53.1438 26.6229 52.925 26.8417C52.7062 27.0605 52.5833 27.3572 52.5833 27.6667V33.5" stroke="black" stroke-width="2" stroke-linecap="round" stroke-linejoin="round"/>
<path d="M138.5 32.3333H149M142 14.8333L145.5 18.3333M143.75 13.0833C144.214 12.6192 144.844 12.3585 145.5 12.3585C145.825 12.3585 146.147 12.4225 146.447 12.5468C146.747 12.6712 147.02 12.8535 147.25 13.0833C147.48 13.3131 147.662 13.586 147.786 13.8862C147.911 14.1865 147.975 14.5083 147.975 14.8333C147.975 15.1583 147.911 15.4802 147.786 15.7804C147.662 16.0807 147.48 16.3535 147.25 16.5833L132.667 31.1667L128 32.3333L129.167 27.6667L143.75 13.0833Z" stroke="#D9D9D9" stroke-width="2" stroke-linecap="round" stroke-linejoin="round"/>
<path d="M220.188 23.4375H221.938V29.125M211.875 19.5H231.125M225.875 16V12.5M217.125 16V12.5M213.625 33.5H229.375C229.839 33.5 230.284 33.3156 230.612 32.9874C230.941 32.6592 231.125 32.2141 231.125 31.75V16C231.125 15.5359 230.941 15.0908 230.612 14.7626C230.284 14.4344 229.839 14.25 229.375 14.25H213.625C213.161 14.25 212.716 14.4344 212.388 14.7626C212.059 15.0908 211.875 15.5359 211.875 16V31.75C211.875 32.2141 212.059 32.6592 212.388 32.9874C212.716 33.3156 213.161 33.5 213.625 33.5Z" stroke="#D9D9D9" stroke-width="2" stroke-linecap="round" stroke-linejoin="round"/>
<path d="M298.667 30.432V31.732C298.667 32.0768 298.804 32.4075 299.048 32.6513C299.291 32.8951 299.622 33.032 299.967 33.032H310.367C310.712 33.032 311.042 32.8951 311.286 32.6513C311.53 32.4075 311.667 32.0768 311.667 31.732V30.432C311.667 29.3977 311.256 28.4057 310.524 27.6743C309.793 26.9429 308.801 26.532 307.767 26.532H302.567C301.532 26.532 300.54 26.9429 299.809 27.6743C299.078 28.4057 298.667 29.3977 298.667 30.432ZM309.067 18.732C309.067 19.7664 308.656 20.7584 307.924 21.4897C307.193 22.2211 306.201 22.632 305.167 22.632C304.132 22.632 303.14 22.2211 302.409 21.4897C301.678 20.7584 301.267 19.7664 301.267 18.732C301.267 17.6977 301.678 16.7057 302.409 15.9743C303.14 15.2429 304.132 14.832 305.167 14.832C306.201 14.832 307.193 15.2429 307.924 15.9743C308.656 16.7057 309.067 17.6977 309.067 18.732Z" stroke="#D9D9D9" stroke-width="2"/>
</svg>
