<svg width="29" height="28" viewBox="0 0 29 28" fill="none" xmlns="http://www.w3.org/2000/svg">
<path d="M14.5 23.3333H25M18 5.83333L21.5 9.33333M19.75 4.08333C20.2141 3.6192 20.8436 3.35846 21.5 3.35846C21.825 3.35846 22.1468 3.42247 22.4471 3.54685C22.7474 3.67122 23.0202 3.85352 23.25 4.08333C23.4798 4.31315 23.6621 4.58597 23.7865 4.88624C23.9109 5.18651 23.9749 5.50833 23.9749 5.83333C23.9749 6.15834 23.9109 6.48016 23.7865 6.78043C23.6621 7.08069 23.4798 7.35352 23.25 7.58333L8.66667 22.1667L4 23.3333L5.16667 18.6667L19.75 4.08333Z" stroke="#D9D9D9" stroke-width="2" stroke-linecap="round" stroke-linejoin="round"/>
</svg>
